<?xml version="1.0" encoding="utf-8"?>
<!-- Generator: Adobe Illustrator 19.2.1, SVG Export Plug-In . SVG Version: 6.00 Build 0)  -->
<svg version="1.1" id="Layer_1" xmlns="http://www.w3.org/2000/svg" xmlns:xlink="http://www.w3.org/1999/xlink" x="0px" y="0px"
	 viewBox="0 0 1242 288" style="enable-background:new 0 0 1242 288;" xml:space="preserve">
<style type="text/css">
	.st0{fill:#333333;}
	.st1{fill:none;stroke:#333333;stroke-width:14.9558;stroke-miterlimit:10;}
</style>
<g>
	<g>
		<path class="st0" d="M219.7,79.5v123.1h-30v-69.5l-28.6,69.5h-22.3l-28.6-69.5v69.5h-30V79.5h34.4l35.4,84.9l35.3-84.9H219.7z"/>
		<path class="st0" d="M255.4,186C243.1,174,237,159,237,140.7s6.1-33.3,18.3-45.2c12.2-11.9,27.2-17.8,44.9-17.8
			s32.6,5.9,44.7,17.8c12.1,11.9,18.2,26.9,18.2,45.2s-6.1,33.3-18.2,45.2c-12.2,11.9-27.1,17.9-44.7,17.9
			C282.5,203.9,267.6,197.9,255.4,186z M323.8,166.5c5.9-6.4,8.9-15,8.9-25.8c0-10.8-3-19.3-8.9-25.8c-5.9-6.4-13.8-9.6-23.7-9.6
			c-9.9,0-17.8,3.2-23.7,9.6c-5.9,6.4-8.9,15-8.9,25.8c0,10.8,3,19.4,8.9,25.8c5.9,6.4,13.8,9.6,23.7,9.6
			C310,176.1,317.9,172.9,323.8,166.5z"/>
		<path class="st0" d="M391.8,186c-12.2-11.9-18.3-27-18.3-45.2s6.1-33.3,18.3-45.2C404,83.7,419,77.8,436.7,77.8
			s32.6,5.9,44.7,17.8c12.1,11.9,18.2,26.9,18.2,45.2s-6.1,33.3-18.2,45.2c-12.2,11.9-27.1,17.9-44.7,17.9
			C419,203.9,404,197.9,391.8,186z M460.2,166.5c5.9-6.4,8.9-15,8.9-25.8c0-10.8-3-19.3-8.9-25.8c-5.9-6.4-13.8-9.6-23.7-9.6
			c-9.9,0-17.8,3.2-23.7,9.6c-5.9,6.4-8.9,15-8.9,25.8c0,10.8,3,19.4,8.9,25.8c5.9,6.4,13.8,9.6,23.7,9.6
			C446.4,176.1,454.3,172.9,460.2,166.5z"/>
		<path class="st0" d="M528.3,185.9C516,174,509.9,159,509.9,140.7s6.1-33.3,18.3-45.2c12.2-11.9,27.2-17.8,44.8-17.8
			c13.7,0,25.8,3.6,36.5,10.9c10.6,7.3,18.1,17.3,22.3,30.2h-35.8c-4.7-9-12.2-13.5-22.4-13.5c-10.3,0-18.4,3.2-24.3,9.6
			c-5.9,6.4-8.9,15-8.9,25.8c0,10.8,3,19.4,8.9,25.8c5.9,6.4,14,9.6,24.3,9.6c10.3,0,17.8-4.5,22.4-13.5h35.8
			c-4.2,12.9-11.6,22.9-22.3,30.2c-10.6,7.3-22.8,10.9-36.5,10.9C555.4,203.7,540.5,197.7,528.3,185.9z"/>
		<path class="st0" d="M672,171.6l3.6,17.9l4.3-17.1l25-84.8h8.8l24.7,84.8l4.3,17.2l3.8-18l20.8-84h10l-29.5,115.1h-9.3l-26.1-90
			l-2.9-11.4l-2.8,11.4l-26.7,90h-9.3L641,87.5h10L672,171.6z"/>
		<path class="st0" d="M853,170.3h-52.3l-11.9,32.3h-10.2l43.6-115.1h9.2l43.6,115.1h-10.1L853,170.3z M803.8,162.1h46.2l-23.1-62.7
			L803.8,162.1z"/>
		<path class="st0" d="M958.3,95.8h-39.4v106.9h-9.7V95.8h-39.4v-8.2h88.5V95.8z"/>
		<path class="st0" d="M1054.5,166.7c-1.3,12.1-5.7,21.4-13,27.8c-7.4,6.4-17.1,9.6-29.4,9.6c-8.5,0-16.1-2.1-22.6-6.4
			c-6.6-4.3-11.6-10.3-15.2-18.1s-5.4-16.8-5.5-26.8v-14.9c0-10.2,1.8-19.3,5.4-27.2c3.6-7.9,8.7-14,15.5-18.3
			c6.7-4.3,14.5-6.4,23.2-6.4c12.3,0,22.1,3.3,29.2,10c7.1,6.6,11.3,15.8,12.5,27.6h-9.8c-2.4-19.6-13-29.3-31.9-29.3
			c-10.4,0-18.7,3.9-24.9,11.7c-6.2,7.8-9.3,18.6-9.3,32.4v14.1c0,13.3,3,23.9,9.1,31.8c6,7.9,14.2,11.9,24.5,11.9
			c10.2,0,17.8-2.4,23-7.3c5.2-4.9,8.4-12.2,9.6-21.9H1054.5z"/>
		<path class="st0" d="M1161.8,202.6h-9.8v-55.2h-65.8v55.2h-9.7V87.5h9.7v51.7h65.8V87.5h9.8V202.6z"/>
	</g>
	<rect x="17.4" y="17.1" class="st1" width="1207.3" height="253.9"/>
</g>
</svg>
